<?xml version="1.0" encoding="us-ascii" standalone="no"?><svg xmlns="http://www.w3.org/2000/svg" xmlns:xlink="http://www.w3.org/1999/xlink" contentStyleType="text/css" height="418px" preserveAspectRatio="none" style="width:407px;height:418px;background:#FFFFFF;" version="1.1" viewBox="0 0 407 418" width="407px" zoomAndPan="magnify"><defs/><g><!--class Lehrer--><g id="elem_Lehrer"><rect codeLine="2" fill="#F1F1F1" height="48" id="Lehrer" rx="2.5" ry="2.5" style="stroke:#181818;stroke-width:0.5;" width="76" x="187.5" y="115"/><ellipse cx="202.5" cy="131" fill="#ADD1B2" rx="11" ry="11" style="stroke:#181818;stroke-width:1.0;"/><path d="M205.4688,136.6406 Q204.8906,136.9375 204.25,137.0781 Q203.6094,137.2344 202.9063,137.2344 Q200.4063,137.2344 199.0781,135.5938 Q197.7656,133.9375 197.7656,130.8125 Q197.7656,127.6875 199.0781,126.0313 Q200.4063,124.375 202.9063,124.375 Q203.6094,124.375 204.25,124.5313 Q204.9063,124.6875 205.4688,124.9844 L205.4688,127.7031 Q204.8438,127.125 204.25,126.8594 Q203.6563,126.5781 203.0313,126.5781 Q201.6875,126.5781 201,127.6563 Q200.3125,128.7188 200.3125,130.8125 Q200.3125,132.9063 201,133.9844 Q201.6875,135.0469 203.0313,135.0469 Q203.6563,135.0469 204.25,134.7813 Q204.8438,134.5 205.4688,133.9219 L205.4688,136.6406 Z " fill="#000000"/><text fill="#000000" font-family="sans-serif" font-size="14" lengthAdjust="spacing" textLength="44" x="216.5" y="135.8467">Lehrer</text><line style="stroke:#181818;stroke-width:0.5;" x1="188.5" x2="262.5" y1="147" y2="147"/><line style="stroke:#181818;stroke-width:0.5;" x1="188.5" x2="262.5" y1="155" y2="155"/></g><!--class Flugzeugtyp--><g id="elem_Flugzeugtyp"><rect codeLine="5" fill="#F1F1F1" height="64.2969" id="Flugzeugtyp" rx="2.5" ry="2.5" style="stroke:#181818;stroke-width:0.5;" width="204" x="164.5" y="347.29"/><ellipse cx="219.75" cy="363.29" fill="#ADD1B2" rx="11" ry="11" style="stroke:#181818;stroke-width:1.0;"/><path d="M222.7188,368.9306 Q222.1406,369.2275 221.5,369.3681 Q220.8594,369.5244 220.1563,369.5244 Q217.6563,369.5244 216.3281,367.8837 Q215.0156,366.2275 215.0156,363.1025 Q215.0156,359.9775 216.3281,358.3212 Q217.6563,356.665 220.1563,356.665 Q220.8594,356.665 221.5,356.8212 Q222.1563,356.9775 222.7188,357.2744 L222.7188,359.9931 Q222.0938,359.415 221.5,359.1494 Q220.9063,358.8681 220.2813,358.8681 Q218.9375,358.8681 218.25,359.9462 Q217.5625,361.0087 217.5625,363.1025 Q217.5625,365.1962 218.25,366.2744 Q218.9375,367.3369 220.2813,367.3369 Q220.9063,367.3369 221.5,367.0712 Q222.0938,366.79 222.7188,366.2119 L222.7188,368.9306 Z " fill="#000000"/><text fill="#000000" font-family="sans-serif" font-size="14" lengthAdjust="spacing" textLength="85" x="240.25" y="368.1367">Flugzeugtyp</text><line style="stroke:#181818;stroke-width:0.5;" x1="165.5" x2="367.5" y1="379.29" y2="379.29"/><rect fill="none" height="6" style="stroke:#C82930;stroke-width:1.0;" width="6" x="172.5" y="389.9384"/><text fill="#000000" font-family="sans-serif" font-size="14" lengthAdjust="spacing" textLength="178" x="184.5" y="396.2851">kostenPerStunde: double</text><line style="stroke:#181818;stroke-width:0.5;" x1="165.5" x2="367.5" y1="403.5869" y2="403.5869"/></g><!--class Uebungseinheiten--><g id="elem_Uebungseinheiten"><rect codeLine="9" fill="#F1F1F1" height="64.2969" id="Uebungseinheiten" rx="2.5" ry="2.5" style="stroke:#181818;stroke-width:0.5;" width="197" x="7" y="223"/><ellipse cx="38.65" cy="239" fill="#ADD1B2" rx="11" ry="11" style="stroke:#181818;stroke-width:1.0;"/><path d="M41.6188,244.6406 Q41.0406,244.9375 40.4,245.0781 Q39.7594,245.2344 39.0563,245.2344 Q36.5563,245.2344 35.2281,243.5937 Q33.9156,241.9375 33.9156,238.8125 Q33.9156,235.6875 35.2281,234.0312 Q36.5563,232.375 39.0563,232.375 Q39.7594,232.375 40.4,232.5312 Q41.0563,232.6875 41.6188,232.9844 L41.6188,235.7031 Q40.9938,235.125 40.4,234.8594 Q39.8063,234.5781 39.1813,234.5781 Q37.8375,234.5781 37.15,235.6562 Q36.4625,236.7187 36.4625,238.8125 Q36.4625,240.9062 37.15,241.9844 Q37.8375,243.0469 39.1813,243.0469 Q39.8063,243.0469 40.4,242.7812 Q40.9938,242.5 41.6188,241.9219 L41.6188,244.6406 Z " fill="#000000"/><text fill="#000000" font-family="sans-serif" font-size="14" lengthAdjust="spacing" textLength="128" x="56.35" y="243.8467">Uebungseinheiten</text><line style="stroke:#181818;stroke-width:0.5;" x1="8" x2="203" y1="255" y2="255"/><rect fill="none" height="6" style="stroke:#C82930;stroke-width:1.0;" width="6" x="15" y="265.6484"/><text fill="#000000" font-family="sans-serif" font-size="14" lengthAdjust="spacing" textLength="171" x="27" y="271.9951">dauerDesFluges: double</text><line style="stroke:#181818;stroke-width:0.5;" x1="8" x2="203" y1="279.2969" y2="279.2969"/></g><!--class Person--><g id="elem_Person"><rect fill="#F1F1F1" height="48" id="Person" rx="2.5" ry="2.5" style="stroke:#181818;stroke-width:0.5;" width="81" x="125" y="7"/><ellipse cx="140" cy="23" fill="#ADD1B2" rx="11" ry="11" style="stroke:#181818;stroke-width:1.0;"/><path d="M142.9688,28.6406 Q142.3906,28.9375 141.75,29.0781 Q141.1094,29.2344 140.4063,29.2344 Q137.9063,29.2344 136.5781,27.5938 Q135.2656,25.9375 135.2656,22.8125 Q135.2656,19.6875 136.5781,18.0313 Q137.9063,16.375 140.4063,16.375 Q141.1094,16.375 141.75,16.5313 Q142.4063,16.6875 142.9688,16.9844 L142.9688,19.7031 Q142.3438,19.125 141.75,18.8594 Q141.1563,18.5781 140.5313,18.5781 Q139.1875,18.5781 138.5,19.6563 Q137.8125,20.7188 137.8125,22.8125 Q137.8125,24.9063 138.5,25.9844 Q139.1875,27.0469 140.5313,27.0469 Q141.1563,27.0469 141.75,26.7813 Q142.3438,26.5 142.9688,25.9219 L142.9688,28.6406 Z " fill="#000000"/><text fill="#000000" font-family="sans-serif" font-size="14" lengthAdjust="spacing" textLength="49" x="154" y="27.8467">Person</text><line style="stroke:#181818;stroke-width:0.5;" x1="126" x2="205" y1="39" y2="39"/><line style="stroke:#181818;stroke-width:0.5;" x1="126" x2="205" y1="47" y2="47"/></g><!--class Schueler--><g id="elem_Schueler"><rect fill="#F1F1F1" height="48" id="Schueler" rx="2.5" ry="2.5" style="stroke:#181818;stroke-width:0.5;" width="93" x="59" y="115"/><ellipse cx="74" cy="131" fill="#ADD1B2" rx="11" ry="11" style="stroke:#181818;stroke-width:1.0;"/><path d="M76.9688,136.6406 Q76.3906,136.9375 75.75,137.0781 Q75.1094,137.2344 74.4063,137.2344 Q71.9063,137.2344 70.5781,135.5938 Q69.2656,133.9375 69.2656,130.8125 Q69.2656,127.6875 70.5781,126.0313 Q71.9063,124.375 74.4063,124.375 Q75.1094,124.375 75.75,124.5313 Q76.4063,124.6875 76.9688,124.9844 L76.9688,127.7031 Q76.3438,127.125 75.75,126.8594 Q75.1563,126.5781 74.5313,126.5781 Q73.1875,126.5781 72.5,127.6563 Q71.8125,128.7188 71.8125,130.8125 Q71.8125,132.9063 72.5,133.9844 Q73.1875,135.0469 74.5313,135.0469 Q75.1563,135.0469 75.75,134.7813 Q76.3438,134.5 76.9688,133.9219 L76.9688,136.6406 Z " fill="#000000"/><text fill="#000000" font-family="sans-serif" font-size="14" lengthAdjust="spacing" textLength="61" x="88" y="135.8467">Schueler</text><line style="stroke:#181818;stroke-width:0.5;" x1="60" x2="151" y1="147" y2="147"/><line style="stroke:#181818;stroke-width:0.5;" x1="60" x2="151" y1="155" y2="155"/></g><!--class Ausbildung--><g id="elem_Ausbildung"><rect fill="#F1F1F1" height="48" id="Ausbildung" rx="2.5" ry="2.5" style="stroke:#181818;stroke-width:0.5;" width="109" x="291" y="231.14"/><ellipse cx="306" cy="247.14" fill="#ADD1B2" rx="11" ry="11" style="stroke:#181818;stroke-width:1.0;"/><path d="M308.9688,252.7806 Q308.3906,253.0775 307.75,253.2181 Q307.1094,253.3744 306.4063,253.3744 Q303.9063,253.3744 302.5781,251.7338 Q301.2656,250.0775 301.2656,246.9525 Q301.2656,243.8275 302.5781,242.1713 Q303.9063,240.515 306.4063,240.515 Q307.1094,240.515 307.75,240.6713 Q308.4063,240.8275 308.9688,241.1244 L308.9688,243.8431 Q308.3438,243.265 307.75,242.9994 Q307.1563,242.7181 306.5313,242.7181 Q305.1875,242.7181 304.5,243.7963 Q303.8125,244.8588 303.8125,246.9525 Q303.8125,249.0463 304.5,250.1244 Q305.1875,251.1869 306.5313,251.1869 Q307.1563,251.1869 307.75,250.9213 Q308.3438,250.64 308.9688,250.0619 L308.9688,252.7806 Z " fill="#000000"/><text fill="#000000" font-family="sans-serif" font-size="14" lengthAdjust="spacing" textLength="77" x="320" y="251.9867">Ausbildung</text><line style="stroke:#181818;stroke-width:0.5;" x1="292" x2="399" y1="263.14" y2="263.14"/><line style="stroke:#181818;stroke-width:0.5;" x1="292" x2="399" y1="271.14" y2="271.14"/></g><ellipse cx="253.5" cy="255.14" fill="#181818" rx="2" ry="2" style="stroke:#181818;stroke-width:1.0;"/><!--class Flugzeug--><g id="elem_Flugzeug"><rect fill="#F1F1F1" height="48" id="Flugzeug" rx="2.5" ry="2.5" style="stroke:#181818;stroke-width:0.5;" width="96" x="33.5" y="355.44"/><ellipse cx="48.5" cy="371.44" fill="#ADD1B2" rx="11" ry="11" style="stroke:#181818;stroke-width:1.0;"/><path d="M51.4688,377.0806 Q50.8906,377.3775 50.25,377.5181 Q49.6094,377.6744 48.9063,377.6744 Q46.4063,377.6744 45.0781,376.0338 Q43.7656,374.3775 43.7656,371.2525 Q43.7656,368.1275 45.0781,366.4713 Q46.4063,364.815 48.9063,364.815 Q49.6094,364.815 50.25,364.9713 Q50.9063,365.1275 51.4688,365.4244 L51.4688,368.1431 Q50.8438,367.565 50.25,367.2994 Q49.6563,367.0181 49.0313,367.0181 Q47.6875,367.0181 47,368.0963 Q46.3125,369.1588 46.3125,371.2525 Q46.3125,373.3463 47,374.4244 Q47.6875,375.4869 49.0313,375.4869 Q49.6563,375.4869 50.25,375.2213 Q50.8438,374.94 51.4688,374.3619 L51.4688,377.0806 Z " fill="#000000"/><text fill="#000000" font-family="sans-serif" font-size="14" lengthAdjust="spacing" textLength="64" x="62.5" y="376.2867">Flugzeug</text><line style="stroke:#181818;stroke-width:0.5;" x1="34.5" x2="128.5" y1="387.44" y2="387.44"/><line style="stroke:#181818;stroke-width:0.5;" x1="34.5" x2="128.5" y1="395.44" y2="395.44"/></g><!--reverse link Person to Lehrer--><g id="link_Person_Lehrer"><path codeLine="14" d="M188.9,73.34 C196.87,87.42 205.49,102.65 212.36,114.79 " fill="none" id="Person-backto-Lehrer" style="stroke:#181818;stroke-width:1.0;"/><polygon fill="none" points="182.43,77.11,178.67,56.26,194.61,70.22,182.43,77.11" style="stroke:#181818;stroke-width:1.0;"/></g><!--reverse link Person to Schueler--><g id="link_Person_Schueler"><path codeLine="15" d="M142.1,73.34 C134.13,87.42 125.51,102.65 118.64,114.79 " fill="none" id="Person-backto-Schueler" style="stroke:#181818;stroke-width:1.0;"/><polygon fill="none" points="136.39,70.22,152.33,56.26,148.57,77.11,136.39,70.22" style="stroke:#181818;stroke-width:1.0;"/></g><!--link Lehrer to apoint10--><g id="link_Lehrer_apoint10"><path d="M231.23,163.37 C238.66,193.64 250.91,243.6 253.15,252.7 " fill="none" id="Lehrer-apoint10" style="stroke:#181818;stroke-width:1.0;"/></g><!--link apoint10 to Flugzeugtyp--><g id="link_apoint10_Flugzeugtyp"><path d="M253.65,257.52 C254.57,266.2 259.67,314.2 263.16,347.05 " fill="none" id="apoint10-Flugzeugtyp" style="stroke:#181818;stroke-width:1.0;"/></g><!--link apoint10 to Ausbildung--><g id="link_apoint10_Ausbildung"><path d="M255.66,255.14 C267.35,255.14 279.05,255.14 290.75,255.14 " fill="none" id="apoint10-Ausbildung" style="stroke:#181818;stroke-width:1.0;stroke-dasharray:7.0,7.0;"/></g><!--link Flugzeug to Flugzeugtyp--><g id="link_Flugzeug_Flugzeugtyp"><path codeLine="17" d="M129.92,379.44 C139.34,379.44 148.77,379.44 158.19,379.44 " fill="none" id="Flugzeug-to-Flugzeugtyp" style="stroke:#181818;stroke-width:1.0;"/><polygon fill="#181818" points="163.06,379.44,154.06,375.44,158.06,379.44,154.06,383.44,163.06,379.44" style="stroke:#181818;stroke-width:1.0;"/></g><!--link Uebungseinheiten to Flugzeug--><g id="link_Uebungseinheiten_Flugzeug"><path codeLine="18" d="M99.32,287.64 C95.57,306.75 90.82,330.97 87.16,349.58 " fill="none" id="Uebungseinheiten-to-Flugzeug" style="stroke:#181818;stroke-width:1.0;"/><polygon fill="#181818" points="86.07,354.17,91.7394,346.1165,87.0396,349.2649,83.8912,344.5652,86.07,354.17" style="stroke:#181818;stroke-width:1.0;"/></g><!--reverse link Lehrer to Uebungseinheiten--><g id="link_Lehrer_Uebungseinheiten"><path codeLine="19" d="M196.6,167.49 C179.15,184.08 156.85,205.29 138.69,222.58 " fill="none" id="Lehrer-backto-Uebungseinheiten" style="stroke:#181818;stroke-width:1.0;"/><polygon fill="#181818" points="199.93,164.37,190.648,167.663,196.3029,167.8115,196.1544,173.4664,199.93,164.37" style="stroke:#181818;stroke-width:1.0;"/></g><!--reverse link Schueler to Uebungseinheiten--><g id="link_Schueler_Uebungseinheiten"><path codeLine="20" d="M105.5,169.19 C105.5,185.52 105.5,205.88 105.5,222.58 " fill="none" id="Schueler-backto-Uebungseinheiten" style="stroke:#181818;stroke-width:1.0;"/><polygon fill="#181818" points="105.5,164.37,101.5,173.37,105.5,169.37,109.5,173.37,105.5,164.37" style="stroke:#181818;stroke-width:1.0;"/></g><!--SRC=[RO_B2i9034Nt-Oei5Pn-W1H145SkXE87j9tO5eTfcKmMllxTgAMjZ-rDJd9kwN9ct54TAE0LxW3bAzawgIuaLJnt6YCQFBKSoUyfP56yfINQLWf78tAWGdp5rFYQ6btjEPiBXGtnyoBn50Czngt7z6PCh_0HPMKjv3ISlOUBYTGSamJNmaNZh7w5gMzg71sZ6Jh0Zvangt7Qbq_ru_VY7r8wPGSpW0S0]--></g></svg>